<svg xmlns="http://www.w3.org/2000/svg" xmlns:xlink="http://www.w3.org/1999/xlink" contentStyleType="text/css" height="608px" preserveAspectRatio="none" style="width:731px;height:608px;background:#FFFFFF;" version="1.1" viewBox="0 0 731 608" width="731px" zoomAndPan="magnify"><defs/><g><!--cluster Mister ED Healthcare System--><g id="cluster_Mister ED Healthcare System"><rect fill="none" height="595" rx="2.5" ry="2.5" style="stroke:#181818;stroke-width:1.0;" width="623.22" x="102.38" y="7"/><text fill="#000000" font-family="sans-serif" font-size="14" font-weight="bold" lengthAdjust="spacing" textLength="230.542" x="298.719" y="21.9951">Mister ED Healthcare System</text></g><!--cluster Account Management--><g id="cluster_Account Management"><rect fill="none" height="154" rx="2.5" ry="2.5" style="stroke:#181818;stroke-width:1.0;" width="192.8" x="153.82" y="102"/><text fill="#000000" font-family="sans-serif" font-size="14" font-weight="bold" lengthAdjust="spacing" textLength="171.6025" x="164.4187" y="116.9951">Account Management</text></g><!--cluster Health Profile--><g id="cluster_Health Profile"><rect fill="none" height="170" rx="2.5" ry="2.5" style="stroke:#181818;stroke-width:1.0;" width="219.03" x="469.81" y="52"/><text fill="#000000" font-family="sans-serif" font-size="14" font-weight="bold" lengthAdjust="spacing" textLength="108.958" x="524.846" y="66.9951">Health Profile</text></g><!--cluster Hospital Services--><g id="cluster_Hospital Services"><rect fill="none" height="171" rx="2.5" ry="2.5" style="stroke:#181818;stroke-width:1.0;" width="562.67" x="138.93" y="280"/><text fill="#000000" font-family="sans-serif" font-size="14" font-weight="bold" lengthAdjust="spacing" textLength="136.835" x="351.8475" y="294.9951">Hospital Services</text></g><!--cluster Virtual Triage--><g id="cluster_Virtual Triage"><rect fill="none" height="103" rx="2.5" ry="2.5" style="stroke:#181818;stroke-width:1.0;" width="557.25" x="126.38" y="475"/><text fill="#000000" font-family="sans-serif" font-size="14" font-weight="bold" lengthAdjust="spacing" textLength="108.5342" x="350.7379" y="489.9951">Virtual Triage</text></g><g id="elem_UC6"><ellipse cx="250.2246" cy="64.0029" fill="#F1F1F1" rx="100.0146" ry="22.4029" style="stroke:#181818;stroke-width:0.5;"/><text fill="#000000" font-family="sans-serif" font-size="14" lengthAdjust="spacing" textLength="164.0898" x="168.1797" y="66.8496">Call Emergency Hotline</text></g><g id="elem_UC1"><ellipse cx="250.22" cy="222" fill="#F1F1F1" rx="80.4" ry="18.48" style="stroke:#181818;stroke-width:0.5;"/><text fill="#000000" font-family="sans-serif" font-size="14" lengthAdjust="spacing" textLength="119.4922" x="188.9576" y="225.336">Register Account</text></g><g id="elem_UC2"><ellipse cx="250.2196" cy="153.0019" fill="#F1F1F1" rx="66.0096" ry="15.6019" style="stroke:#181818;stroke-width:0.5;"/><text fill="#000000" font-family="sans-serif" font-size="14" lengthAdjust="spacing" textLength="81.7031" x="206.3681" y="156.7495">Log In / Out</text></g><g id="elem_UC3"><ellipse cx="579.3271" cy="185.0034" fill="#F1F1F1" rx="93.5171" ry="21.1034" style="stroke:#181818;stroke-width:0.5;"/><text fill="#000000" font-family="sans-serif" font-size="14" lengthAdjust="spacing" textLength="149.6592" x="504.4975" y="187.8501">Update Health Profile</text></g><g id="elem_UC11"><ellipse cx="579.3303" cy="107.9961" fill="#F1F1F1" rx="91.8303" ry="20.7661" style="stroke:#181818;stroke-width:0.5;"/><text fill="#000000" font-family="sans-serif" font-size="14" lengthAdjust="spacing" textLength="145.8721" x="506.3943" y="110.8427">View Medical History</text></g><g id="elem_UC4"><ellipse cx="250.2156" cy="335.9971" fill="#F1F1F1" rx="95.2856" ry="21.4571" style="stroke:#181818;stroke-width:0.5;"/><text fill="#000000" font-family="sans-serif" font-size="14" lengthAdjust="spacing" textLength="153.6104" x="173.4104" y="338.8438">Find Nearby Hospitals</text></g><g id="elem_UC5"><ellipse cx="579.331" cy="339.0042" fill="#F1F1F1" rx="106.271" ry="23.6542" style="stroke:#181818;stroke-width:0.5;"/><text fill="#000000" font-family="sans-serif" font-size="14" lengthAdjust="spacing" textLength="177.7891" x="490.4365" y="341.8509">View Hospital Wait Times</text></g><g id="elem_UC9"><ellipse cx="250.2212" cy="413.9962" fill="#F1F1F1" rx="93.5812" ry="21.1162" style="stroke:#181818;stroke-width:0.5;"/><text fill="#000000" font-family="sans-serif" font-size="14" lengthAdjust="spacing" textLength="149.8027" x="175.3199" y="416.8429">View Waitlist Position</text></g><g id="elem_UC10"><ellipse cx="579.3253" cy="413.9991" fill="#F1F1F1" rx="72.1953" ry="16.8391" style="stroke:#181818;stroke-width:0.5;"/><text fill="#000000" font-family="sans-serif" font-size="14" lengthAdjust="spacing" textLength="98.7041" x="526.9733" y="417.7466">Leave Waitlist</text></g><g id="elem_UC7"><ellipse cx="250.2204" cy="533.9981" fill="#F1F1F1" rx="107.8404" ry="23.9681" style="stroke:#181818;stroke-width:0.5;"/><text fill="#000000" font-family="sans-serif" font-size="14" lengthAdjust="spacing" textLength="181.2002" x="159.6203" y="536.8448">Register for Virtual Triage</text></g><g id="elem_UC8"><ellipse cx="579.3324" cy="530.0005" fill="#F1F1F1" rx="88.3024" ry="20.0605" style="stroke:#181818;stroke-width:0.5;"/><text fill="#000000" font-family="sans-serif" font-size="14" lengthAdjust="spacing" textLength="137.8877" x="510.3886" y="532.8472">View Triage Results</text></g><!--entity patient--><g id="elem_patient"><ellipse cx="30.688" cy="270.35" fill="#F1F1F1" rx="8" ry="8" style="stroke:#181818;stroke-width:0.5;"/><path d="M30.688,278.35 L30.688,305.35 M17.688,286.35 L43.688,286.35 M30.688,305.35 L17.688,320.35 M30.688,305.35 L43.688,320.35 " fill="none" style="stroke:#181818;stroke-width:0.5;"/><text fill="#000000" font-family="sans-serif" font-size="14" lengthAdjust="spacing" textLength="49.376" x="6" y="334.8451">Patient</text></g><!--link patient to UC1--><g id="link_patient_UC1"><path d="M55.8,291.35 C91.86,278.42 154.762,255.8648 199.812,239.7148 " fill="none" id="patient-to-UC1" style="stroke:#181818;stroke-width:1.0;"/><polygon fill="#181818" points="205.46,237.69,195.6381,236.9618,200.7533,239.3773,198.3378,244.4925,205.46,237.69" style="stroke:#181818;stroke-width:1.0;"/></g><!--link patient to UC2--><g id="link_patient_UC2"><path d="M43.42,261.51 C53.09,236.26 69.36,204.59 94.38,186 C120.08,166.9 148.4941,159.0765 178.3341,155.4365 " fill="none" id="patient-to-UC2" style="stroke:#181818;stroke-width:1.0;"/><polygon fill="#181818" points="184.29,154.71,174.8719,151.8292,179.3268,155.3154,175.8406,159.7703,184.29,154.71" style="stroke:#181818;stroke-width:1.0;"/></g><!--link patient to UC4--><g id="link_patient_UC4"><path d="M55.8,303.99 C83.78,308.62 125.4206,315.5099 166.3706,322.2899 " fill="none" id="patient-to-UC4" style="stroke:#181818;stroke-width:1.0;"/><polygon fill="#181818" points="172.29,323.27,164.0643,317.8536,167.3572,322.4533,162.7575,325.7462,172.29,323.27" style="stroke:#181818;stroke-width:1.0;"/></g><!--link patient to UC6--><g id="link_patient_UC6"><path d="M35.59,261.44 C41.61,221.36 56.73,159.25 94.38,121 C115.07,99.97 138.4453,88.4044 165.8453,79.9744 " fill="none" id="patient-to-UC6" style="stroke:#181818;stroke-width:1.0;"/><polygon fill="#181818" points="171.58,78.21,161.8017,77.0334,166.8011,79.6803,164.1542,84.6797,171.58,78.21" style="stroke:#181818;stroke-width:1.0;"/></g><!--link patient to UC7--><g id="link_patient_UC7"><path d="M39.89,338.36 C48.63,371.48 65.31,418.92 94.38,451 C120.28,479.59 152.8655,497.8491 184.7955,511.3791 " fill="none" id="patient-to-UC7" style="stroke:#181818;stroke-width:1.0;"/><polygon fill="#181818" points="190.32,513.72,183.5939,506.5256,185.7163,511.7692,180.4726,513.8916,190.32,513.72" style="stroke:#181818;stroke-width:1.0;"/></g><!--link patient to UC9--><g id="link_patient_UC9"><path d="M55.64,337.61 C66.03,351.21 79.29,365.52 94.38,375 C116.44,388.86 137.3331,396.4534 162.3431,402.2134 " fill="none" id="patient-to-UC9" style="stroke:#181818;stroke-width:1.0;"/><polygon fill="#181818" points="168.19,403.56,160.3173,397.6421,163.3176,402.4378,158.5219,405.4381,168.19,403.56" style="stroke:#181818;stroke-width:1.0;"/></g><!--link UC1 to UC3--><g id="link_UC1_UC3"><path d="M323,213.88 C373.69,208.15 435.7881,201.1247 488.8981,195.1147 " fill="none" id="UC1-to-UC3" style="stroke:#181818;stroke-width:1.0;stroke-dasharray:7.0,7.0;"/><polygon fill="#181818" points="494.86,194.44,485.4673,191.4774,489.8917,195.0022,486.3669,199.4266,494.86,194.44" style="stroke:#181818;stroke-width:1.0;"/><text fill="#000000" font-family="sans-serif" font-size="13" lengthAdjust="spacing" textLength="53.8726" x="389.06" y="198.0669">includes</text></g><!--link UC2 to UC11--><g id="link_UC2_UC11"><path d="M308.19,145.16 C361.28,137.86 434.9461,127.7282 494.0061,119.5982 " fill="none" id="UC2-to-UC11" style="stroke:#181818;stroke-width:1.0;stroke-dasharray:7.0,7.0;"/><polygon fill="#181818" points="499.95,118.78,490.4886,116.0447,494.9967,119.4619,491.5796,123.97,499.95,118.78" style="stroke:#181818;stroke-width:1.0;"/><text fill="#000000" font-family="sans-serif" font-size="13" lengthAdjust="spacing" textLength="53.8726" x="389.06" y="124.0669">includes</text></g><!--link UC2 to UC3--><g id="link_UC2_UC3"><path d="M310.46,159.76 C334.53,162.43 362.61,165.47 388.06,168 C421.72,171.35 452.7831,174.2041 485.1731,177.0541 " fill="none" id="UC2-to-UC3" style="stroke:#181818;stroke-width:1.0;stroke-dasharray:7.0,7.0;"/><polygon fill="#181818" points="491.15,177.58,482.5352,172.8065,486.1692,177.1417,481.834,180.7757,491.15,177.58" style="stroke:#181818;stroke-width:1.0;"/><text fill="#000000" font-family="sans-serif" font-size="13" lengthAdjust="spacing" textLength="53.8726" x="389.06" y="164.0669">includes</text></g><!--link UC7 to UC8--><g id="link_UC7_UC8"><path d="M358.32,532.69 C401.27,532.17 444.1405,531.6436 484.8905,531.1436 " fill="none" id="UC7-to-UC8" style="stroke:#181818;stroke-width:1.0;stroke-dasharray:7.0,7.0;"/><polygon fill="#181818" points="490.89,531.07,481.8416,527.1807,485.8904,531.1313,481.9398,535.1801,490.89,531.07" style="stroke:#181818;stroke-width:1.0;"/><text fill="#000000" font-family="sans-serif" font-size="13" lengthAdjust="spacing" textLength="53.8726" x="389.06" y="528.0669">includes</text></g><!--reverse link UC4 to UC5--><g id="link_UC4_UC5"><path d="M363.8293,337.0331 C403.5493,337.3931 431.91,337.66 472.73,338.03 " fill="none" id="UC4-backto-UC5" style="stroke:#181818;stroke-width:1.0;"/><polygon fill="none" points="345.83,336.87,363.7749,343.0329,363.8836,331.0334,345.83,336.87" style="stroke:#181818;stroke-width:1.0;"/><text fill="#000000" font-family="sans-serif" font-size="13" lengthAdjust="spacing" textLength="52.0508" x="389.56" y="334.0669">extends</text></g><!--reverse link UC9 to UC10--><g id="link_UC9_UC10"><path d="M362.08,414 C413.74,414 459.05,414 506.82,414 " fill="none" id="UC9-backto-UC10" style="stroke:#181818;stroke-width:1.0;"/><polygon fill="none" points="344.08,414,362.08,420,362.08,408,344.08,414" style="stroke:#181818;stroke-width:1.0;"/><text fill="#000000" font-family="sans-serif" font-size="13" lengthAdjust="spacing" textLength="52.0508" x="389.56" y="410.0669">extends</text></g><!--SRC=[TP91Jy9048Nl_HKlt46BA6ACYL6C9g84KC_hTgYJBBjaTwiIzR-xBItQMcyxBr_UlDaPHKiFRs0vVV58s9BqR7Gaf3SMdQdmJDft81pMstUK8qAdYj2PiFDaCRx4DGdbNwImXFacYAiEFYBW5tikfScqnqHeaTAgSCqH87CaXGl8ZDAjOSaMRHykuZfrQrBSQEpXFgk8VY2-wkssWJ2rPicA_hHwM2V24vfKuNPGHn-PtZ2XXALGk0u1ZTrKoUAMniQjsGTqJlQL9Ra_lQzO9xWZOPytg6XNEWvQUkySdmHxB7X55NtOGkUG2YanDOxpNPRigF6B95vf1rVpx9VpxB0BeHJ6Ax8fQPd73RYkFkgeFlaZMv-5c0lBOSF_RtSPBgl95dx3bd6s06RaCkMhkO-Bc5zHLDuakjspub3gTRzH3nhrKQCUDkfH50LJz7fvSO0Ji9OgIyW5kL_ASTokD_1XAH_NvG5EFxlTV9D1ftTFEidbKIN7-p_wDm00]--></g></svg>