<svg xmlns="http://www.w3.org/2000/svg" xmlns:xlink="http://www.w3.org/1999/xlink" contentStyleType="text/css" height="505px" preserveAspectRatio="none" style="width:330px;height:505px;background:#FFFFFF;" version="1.1" viewBox="0 0 330 505" width="330px" zoomAndPan="magnify"><defs/><g><!--cluster MisterED--><g id="cluster_MisterED"><rect fill="none" height="492" rx="2.5" ry="2.5" style="stroke:#181818;stroke-width:1.0;" width="179.14" x="145.85" y="7"/><text fill="#000000" font-family="sans-serif" font-size="14" font-weight="bold" lengthAdjust="spacing" textLength="71.3398" x="199.7501" y="21.9951">MisterED</text></g><g id="elem_UC1"><ellipse cx="235.4152" cy="397.003" fill="#F1F1F1" rx="72.6152" ry="16.923" style="stroke:#181818;stroke-width:0.5;"/><text fill="#000000" font-family="sans-serif" font-size="14" lengthAdjust="spacing" textLength="99.8115" x="182.5094" y="400.7506">Log in/Log out</text></g><g id="elem_UC2"><ellipse cx="235.4243" cy="330.0029" fill="#F1F1F1" rx="52.3543" ry="14.7129" style="stroke:#181818;stroke-width:0.5;"/><text fill="#000000" font-family="sans-serif" font-size="14" lengthAdjust="spacing" textLength="56.6699" x="204.0894" y="333.7504">Patients</text></g><g id="elem_UC3"><ellipse cx="235.4206" cy="466.0041" fill="#F1F1F1" rx="73.5706" ry="17.1141" style="stroke:#181818;stroke-width:0.5;"/><text fill="#000000" font-family="sans-serif" font-size="14" lengthAdjust="spacing" textLength="102.3135" x="181.2638" y="469.7517">View Schedule</text></g><g id="elem_UC4"><ellipse cx="235.4239" cy="249.0032" fill="#F1F1F1" rx="58.7539" ry="14.7632" style="stroke:#181818;stroke-width:0.5;"/><text fill="#000000" font-family="sans-serif" font-size="14" lengthAdjust="spacing" textLength="65.2422" x="199.8028" y="252.7507">Pronouns</text></g><g id="elem_UC5"><ellipse cx="235.4185" cy="57.0041" fill="#F1F1F1" rx="40.8885" ry="14.5841" style="stroke:#181818;stroke-width:0.5;"/><text fill="#000000" font-family="sans-serif" font-size="14" lengthAdjust="spacing" textLength="41.3027" x="212.0333" y="60.6866">Name</text></g><g id="elem_UC6"><ellipse cx="235.4235" cy="121.0035" fill="#F1F1F1" rx="37.1435" ry="14.5435" style="stroke:#181818;stroke-width:0.5;"/><text fill="#000000" font-family="sans-serif" font-size="14" lengthAdjust="spacing" textLength="36.2031" x="215.9066" y="124.3287">Issue</text></g><g id="elem_UC7"><ellipse cx="235.4157" cy="184.9962" fill="#F1F1F1" rx="55.1457" ry="14.7362" style="stroke:#181818;stroke-width:0.5;"/><text fill="#000000" font-family="sans-serif" font-size="14" lengthAdjust="spacing" textLength="60.4092" x="202.2111" y="188.7438">Allergies</text></g><!--entity fc--><g id="elem_fc"><ellipse cx="29.4268" cy="367.35" fill="#F1F1F1" rx="8" ry="8" style="stroke:#181818;stroke-width:0.5;"/><path d="M29.4268,375.35 L29.4268,402.35 M16.4268,383.35 L42.4268,383.35 M29.4268,402.35 L16.4268,417.35 M29.4268,402.35 L42.4268,417.35 " fill="none" style="stroke:#181818;stroke-width:0.5;"/><text fill="#000000" font-family="sans-serif" font-size="14" lengthAdjust="spacing" textLength="46.8535" x="6" y="431.8451">Doctor</text></g><!--link fc to UC1--><g id="link_fc_UC1"><path d="M53.04,397 C79.39,397 118.23,397 156.74,397 " fill="none" id="fc-to-UC1" style="stroke:#181818;stroke-width:1.0;"/><polygon fill="#181818" points="162.74,397,153.74,393,157.74,397,153.74,401,162.74,397" style="stroke:#181818;stroke-width:1.0;"/></g><!--link fc to UC2--><g id="link_fc_UC2"><path d="M53.22,384.48 C62.27,379.83 72.88,374.78 82.85,371 C119.18,357.23 156.1862,347.4501 187.0362,340.2701 " fill="none" id="fc-to-UC2" style="stroke:#181818;stroke-width:1.0;"/><polygon fill="#181818" points="192.88,338.91,183.2076,337.0542,188.0102,340.0434,185.021,344.846,192.88,338.91" style="stroke:#181818;stroke-width:1.0;"/></g><!--link fc to UC3--><g id="link_fc_UC3"><path d="M53.04,404.65 C86.54,415.98 144.2762,435.508 186.5362,449.798 " fill="none" id="fc-to-UC3" style="stroke:#181818;stroke-width:1.0;"/><polygon fill="#181818" points="192.22,451.72,184.9755,445.0478,187.4835,450.1184,182.4129,452.6263,192.22,451.72" style="stroke:#181818;stroke-width:1.0;"/></g><!--link UC2 to UC4--><g id="link_UC2_UC4"><path d="M235.42,315.14 C235.42,300.62 235.42,284.62 235.42,270.04 " fill="none" id="UC2-to-UC4" style="stroke:#181818;stroke-width:1.0;stroke-dasharray:7.0,7.0;"/><polygon fill="#181818" points="235.42,264.04,231.42,273.04,235.42,269.04,239.42,273.04,235.42,264.04" style="stroke:#181818;stroke-width:1.0;"/><text fill="#000000" font-family="sans-serif" font-size="13" lengthAdjust="spacing" textLength="45.2778" x="201.42" y="294.0969">extend</text></g><!--link UC2 to UC5--><g id="link_UC2_UC5"><path d="M182.73,330.97 C154.8,328.42 122.59,319.96 104.37,296.5 C99.74,290.55 91,143.08 137.85,89 C152.21,72.43 169.4081,65.5238 189.5181,61.6538 " fill="none" id="UC2-to-UC5" style="stroke:#181818;stroke-width:1.0;stroke-dasharray:7.0,7.0;"/><polygon fill="#181818" points="195.41,60.52,185.8163,58.2928,190.5001,61.4649,187.3281,66.1487,195.41,60.52" style="stroke:#181818;stroke-width:1.0;"/><text fill="#000000" font-family="sans-serif" font-size="13" lengthAdjust="spacing" textLength="45.2778" x="83.85" y="292.5669">extend</text></g><!--link UC2 to UC6--><g id="link_UC2_UC6"><path d="M198.43,319.36 C177.97,311.73 153.58,299.48 137.85,281 C101,237.69 69.97,202.79 104.37,157.5 C125.87,129.19 161.3871,121.8421 191.9571,120.3521 " fill="none" id="UC2-to-UC6" style="stroke:#181818;stroke-width:1.0;stroke-dasharray:7.0,7.0;"/><polygon fill="#181818" points="197.95,120.06,188.7659,116.5029,192.9559,120.3034,189.1554,124.4934,197.95,120.06" style="stroke:#181818;stroke-width:1.0;"/><text fill="#000000" font-family="sans-serif" font-size="13" lengthAdjust="spacing" textLength="45.2778" x="83.85" y="170.5669">extend</text></g><!--link UC2 to UC7--><g id="link_UC2_UC7"><path d="M201.02,318.54 C151.93,300.36 71.21,262.52 104.37,219.5 C121.96,196.67 146.7671,188.4562 174.0671,185.4062 " fill="none" id="UC2-to-UC7" style="stroke:#181818;stroke-width:1.0;stroke-dasharray:7.0,7.0;"/><polygon fill="#181818" points="180.03,184.74,170.6415,181.764,175.0609,185.2952,171.5298,189.7145,180.03,184.74" style="stroke:#181818;stroke-width:1.0;"/><text fill="#000000" font-family="sans-serif" font-size="13" lengthAdjust="spacing" textLength="45.2778" x="83.85" y="232.5669">extend</text></g><!--SRC=[POv12i8m44NtESNGlOhLjk1247KXg0YY-v1Esq1C89cW8DvTMneRSJK_xyqVeh0Y80DMrWr1AIqAaaOpBiXOI3QcdGbm1vLWhUIwLWW7wGZjTlDa0DwXu0uXsPiQf9wqmtZgIfVrDDuuSPAeoVKkZTrLuXtEei7IA-mNPZzbQxJnEfJdiJloM-XaCTyvvuF8Ox5I2cqjCLmhs8jL0aQZPVVdRqo7E6EV9upRE5y0FWXrEQ3i7-N_g0Ze3G00]--></g></svg>