<svg xmlns="http://www.w3.org/2000/svg" xmlns:xlink="http://www.w3.org/1999/xlink" contentStyleType="text/css" height="670px" preserveAspectRatio="none" style="width:704px;height:670px;background:#1B1B1B;" version="1.1" viewBox="0 0 704 670" width="704px" zoomAndPan="magnify"><defs/><g><rect fill="#1B1B1B" height="670" style="stroke:none;stroke-width:1.0;" width="704" x="0" y="0"/><!--cluster MisterEd--><g id="cluster_MisterEd"><rect fill="none" height="657" rx="2.5" ry="2.5" style="stroke:#E7E7E7;stroke-width:1.0;" width="282.29" x="164.38" y="7"/><text fill="#FFFFFF" font-family="sans-serif" font-size="14" font-weight="bold" lengthAdjust="spacing" textLength="69.7402" x="270.6549" y="21.9951">MisterEd</text></g><g id="elem_UC1"><ellipse cx="305.521" cy="59.0042" fill="#313139" rx="74.771" ry="17.3542" style="stroke:#E7E7E7;stroke-width:0.5;"/><text fill="#FFFFFF" font-family="sans-serif" font-size="14" lengthAdjust="spacing" textLength="105.4238" x="249.809" y="62.7518">Check ED Load</text></g><g id="elem_UC2"><ellipse cx="305.5155" cy="130.0011" fill="#313139" rx="81.0055" ry="18.6011" style="stroke:#E7E7E7;stroke-width:0.5;"/><text fill="#FFFFFF" font-family="sans-serif" font-size="14" lengthAdjust="spacing" textLength="120.9482" x="243.748" y="133.2699">Register Virtually</text></g><g id="elem_UC3"><ellipse cx="305.5231" cy="544.0046" fill="#313139" rx="70.7231" ry="16.5446" style="stroke:#E7E7E7;stroke-width:0.5;"/><text fill="#FFFFFF" font-family="sans-serif" font-size="14" lengthAdjust="spacing" textLength="94.7803" x="255.133" y="547.7522">Virtual Triage</text></g><g id="elem_UC4"><ellipse cx="305.5205" cy="200.0041" fill="#313139" rx="71.2205" ry="16.6441" style="stroke:#E7E7E7;stroke-width:0.5;"/><text fill="#FFFFFF" font-family="sans-serif" font-size="14" lengthAdjust="spacing" textLength="96.1133" x="254.4638" y="203.7517">Wait at Home</text></g><g id="elem_UC5"><ellipse cx="305.5162" cy="279.0032" fill="#313139" rx="124.7162" ry="27.3432" style="stroke:#E7E7E7;stroke-width:0.5;"/><text fill="#FFFFFF" font-family="sans-serif" font-size="14" lengthAdjust="spacing" textLength="217.3896" x="196.8214" y="281.8499">Receive Notification to Visit ED</text></g><g id="elem_UC6"><ellipse cx="305.5156" cy="621.9991" fill="#313139" rx="117.9456" ry="25.9891" style="stroke:#E7E7E7;stroke-width:0.5;"/><text fill="#FFFFFF" font-family="sans-serif" font-size="14" lengthAdjust="spacing" textLength="202.9658" x="204.0327" y="624.8458">Visit Emergency Department</text></g><g id="elem_UC7"><ellipse cx="305.524" cy="364.0008" fill="#313139" rx="102.054" ry="22.8108" style="stroke:#E7E7E7;stroke-width:0.5;"/><text fill="#FFFFFF" font-family="sans-serif" font-size="14" lengthAdjust="spacing" textLength="168.5742" x="221.2369" y="366.8475">Visit Primary Care Clinic</text></g><g id="elem_UC8"><ellipse cx="305.5246" cy="448.9989" fill="#313139" rx="125.1446" ry="27.4289" style="stroke:#E7E7E7;stroke-width:0.5;"/><text fill="#FFFFFF" font-family="sans-serif" font-size="14" lengthAdjust="spacing" textLength="218.2988" x="196.3752" y="451.8456">Contact Nurse/Clinician Hotline</text></g><!--entity patient--><g id="elem_patient"><ellipse cx="30.688" cy="325.35" fill="#313139" rx="8" ry="8" style="stroke:#E7E7E7;stroke-width:0.5;"/><path d="M30.688,333.35 L30.688,360.35 M17.688,341.35 L43.688,341.35 M30.688,360.35 L17.688,375.35 M30.688,360.35 L43.688,375.35 " fill="none" style="stroke:#E7E7E7;stroke-width:0.5;"/><text fill="#FFFFFF" font-family="sans-serif" font-size="14" lengthAdjust="spacing" textLength="49.376" x="6" y="389.8451">Patient</text></g><!--entity GP--><g id="elem_GP"><ellipse cx="595.3547" cy="321.35" fill="#313139" rx="8" ry="8" style="stroke:#E7E7E7;stroke-width:0.5;"/><path d="M595.3547,329.35 L595.3547,356.35 M582.3547,337.35 L608.3547,337.35 M595.3547,356.35 L582.3547,371.35 M595.3547,356.35 L608.3547,371.35 " fill="none" style="stroke:#E7E7E7;stroke-width:0.5;"/><text fill="#FFFFFF" font-family="sans-serif" font-size="14" lengthAdjust="spacing" textLength="168.6494" x="511.03" y="385.8451">Primary Care Clinic (GP)</text></g><!--entity hotline--><g id="elem_hotline"><ellipse cx="595.3499" cy="432.35" fill="#313139" rx="8" ry="8" style="stroke:#E7E7E7;stroke-width:0.5;"/><path d="M595.3499,440.35 L595.3499,467.35 M582.3499,448.35 L608.3499,448.35 M595.3499,467.35 L582.3499,482.35 M595.3499,467.35 L608.3499,482.35 " fill="none" style="stroke:#E7E7E7;stroke-width:0.5;"/><text fill="#FFFFFF" font-family="sans-serif" font-size="14" lengthAdjust="spacing" textLength="159.3799" x="515.66" y="496.8451">Nurse/Clinician Hotline</text></g><!--entity ED--><g id="elem_ED"><ellipse cx="595.358" cy="592.35" fill="#313139" rx="8" ry="8" style="stroke:#E7E7E7;stroke-width:0.5;"/><path d="M595.358,600.35 L595.358,627.35 M582.358,608.35 L608.358,608.35 M595.358,627.35 L582.358,642.35 M595.358,627.35 L608.358,642.35 " fill="none" style="stroke:#E7E7E7;stroke-width:0.5;"/><text fill="#FFFFFF" font-family="sans-serif" font-size="14" lengthAdjust="spacing" textLength="203.376" x="493.67" y="656.8451">Emergency Department (ED)</text></g><!--link patient to UC1--><g id="link_patient_UC1"><path d="M36.96,316.64 C47.5,256.64 77.41,142.47 156.38,94 C180.25,79.34 203.8533,71.9387 230.2333,66.9787 " fill="none" id="patient-to-UC1" style="stroke:#E7E7E7;stroke-width:1.0;"/><polygon fill="#E7E7E7" points="236.13,65.87,226.5459,63.6019,231.2161,66.7939,228.0241,71.4642,236.13,65.87" style="stroke:#E7E7E7;stroke-width:1.0;"/></g><!--link patient to UC2--><g id="link_patient_UC2"><path d="M44.76,316.49 C62.32,271.47 98.23,198.94 156.38,166 C179.87,152.69 202.2862,145.504 227.8162,140.184 " fill="none" id="patient-to-UC2" style="stroke:#E7E7E7;stroke-width:1.0;"/><polygon fill="#E7E7E7" points="233.69,138.96,224.0633,136.8801,228.7951,139.98,225.6953,144.7119,233.69,138.96" style="stroke:#E7E7E7;stroke-width:1.0;"/></g><!--link patient to UC3--><g id="link_patient_UC3"><path d="M55.66,392.15 C78.01,423.84 114.19,468.23 156.38,494 C186.03,512.11 217.2659,523.0515 246.8959,531.0215 " fill="none" id="patient-to-UC3" style="stroke:#E7E7E7;stroke-width:1.0;"/><polygon fill="#E7E7E7" points="252.69,532.58,245.0379,526.3795,247.8616,531.2812,242.9599,534.1049,252.69,532.58" style="stroke:#E7E7E7;stroke-width:1.0;"/></g><!--link patient to UC4--><g id="link_patient_UC4"><path d="M55.86,323.25 C78.73,295.47 115.56,256.19 156.38,234 C181.99,220.07 207.1944,212.8899 234.2744,208.0299 " fill="none" id="patient-to-UC4" style="stroke:#E7E7E7;stroke-width:1.0;"/><polygon fill="#E7E7E7" points="240.18,206.97,230.6149,204.6227,235.2586,207.8532,232.0281,212.4969,240.18,206.97" style="stroke:#E7E7E7;stroke-width:1.0;"/></g><!--link patient to UC5--><g id="link_patient_UC5"><path d="M55.86,384.72 C64.25,392.88 74.35,400.66 85.38,405 C111.43,415.25 127.63,423.8 148.38,405 C161.78,392.85 144.9,337.98 156.38,324 C167.72,310.18 177.6007,302.7671 194.2507,296.0071 " fill="none" id="patient-to-UC5" style="stroke:#E7E7E7;stroke-width:1.0;"/><polygon fill="#E7E7E7" points="199.81,293.75,189.9664,293.4295,195.1773,295.6309,192.9758,300.8418,199.81,293.75" style="stroke:#E7E7E7;stroke-width:1.0;"/></g><!--link patient to UC6--><g id="link_patient_UC6"><path d="M41.1,393.5 C55.97,445.25 90.27,535.64 156.38,578 C174.45,589.58 189.9592,596.4428 210.6292,602.8528 " fill="none" id="patient-to-UC6" style="stroke:#E7E7E7;stroke-width:1.0;"/><polygon fill="#E7E7E7" points="216.36,604.63,208.9486,598.1437,211.5844,603.149,206.5791,605.7847,216.36,604.63" style="stroke:#E7E7E7;stroke-width:1.0;"/></g><!--link UC3 to UC7--><g id="link_UC3_UC7"><path d="M244.44,535.39 C214.83,528.49 180.55,516.12 156.38,494 C118.82,459.63 83.02,424.57 116.82,386.5 C142.12,358 177.0005,350.5595 214.2505,351.0595 " fill="none" id="UC3-to-UC7" style="stroke:#E7E7E7;stroke-width:1.0;stroke-dasharray:7.0,7.0;"/><polygon fill="#E7E7E7" points="220.25,351.14,211.3045,347.0196,215.2505,351.0729,211.1971,355.0188,220.25,351.14" style="stroke:#E7E7E7;stroke-width:1.0;"/><text fill="#FFFFFF" font-family="sans-serif" font-size="13" lengthAdjust="spacing" textLength="61.1851" x="86.38" y="399.5669">&#171;extend&#187;</text></g><!--link UC3 to UC8--><g id="link_UC3_UC8"><path d="M305.52,527.02 C305.52,513.03 305.52,498.93 305.52,482.64 " fill="none" id="UC3-to-UC8" style="stroke:#E7E7E7;stroke-width:1.0;stroke-dasharray:7.0,7.0;"/><polygon fill="#E7E7E7" points="305.52,476.64,301.52,485.64,305.52,481.64,309.52,485.64,305.52,476.64" style="stroke:#E7E7E7;stroke-width:1.0;"/><text fill="#FFFFFF" font-family="sans-serif" font-size="13" lengthAdjust="spacing" textLength="61.1851" x="263.52" y="506.5069">&#171;extend&#187;</text></g><!--link UC6 to ED--><g id="link_UC6_ED"><path d="M423.59,622 C446.78,622 464.94,622 487.53,622 " fill="none" id="UC6-to-ED" style="stroke:#E7E7E7;stroke-width:1.0;"/><polygon fill="#E7E7E7" points="493.53,622,484.53,618,488.53,622,484.53,626,493.53,622" style="stroke:#E7E7E7;stroke-width:1.0;"/></g><!--link UC7 to GP--><g id="link_UC7_GP"><path d="M405.98,359.51 C440.1,357.97 471.9261,356.5309 504.6761,355.0509 " fill="none" id="UC7-to-GP" style="stroke:#E7E7E7;stroke-width:1.0;"/><polygon fill="#E7E7E7" points="510.67,354.78,501.4986,351.1904,505.6751,355.0057,501.8598,359.1822,510.67,354.78" style="stroke:#E7E7E7;stroke-width:1.0;"/></g><!--link UC8 to hotline--><g id="link_UC8_hotline"><path d="M428.59,454.51 C458.01,455.84 482.6761,456.9598 509.5161,458.1698 " fill="none" id="UC8-to-hotline" style="stroke:#E7E7E7;stroke-width:1.0;"/><polygon fill="#E7E7E7" points="515.51,458.44,506.6993,454.0387,510.5151,458.2148,506.339,462.0306,515.51,458.44" style="stroke:#E7E7E7;stroke-width:1.0;"/></g><!--SRC=[VP9FJyCm3CNl-HJMJkCm4FilDEtILkC0quJOE4UfrrcqoPHwY0dntKdJ3DHeegVd-FVgzZabxXdOWANYm92JHSLaj92AZONUHZAXvXx86ewj_crPggGzGo8jGbAI9WNzrUR6iwlD1LkVR8rtRP-aXaV3JgEd3gs-e5c5ja2jpf3YKLgkt3JePsdxoYmLelawgOiIuPbgHflby2N0FQSQbQmHUia1rRjZuSd8tFksoNqNUS72cs57ba-oBC-16tQvq8PNIxB0m8owp9ia1idkhweBCOwdAQGFXBLXsfEIJRfDu3kgdJLBWsiIp_RTAu44VdgDlxAIWC-Yb8nc5phyjvnjCXVVGeIjms2mz55sws5KZw9w7DMJg9uAvu7RHiuUOB70JqQTBvT_n_FeUEgTxZ8uXvVkgZdAot2VVW00]--></g></svg>