<svg xmlns="http://www.w3.org/2000/svg" xmlns:xlink="http://www.w3.org/1999/xlink" contentStyleType="text/css" height="226px" preserveAspectRatio="none" style="width:299px;height:226px;background:#FFFFFF;" version="1.1" viewBox="0 0 299 226" width="299px" zoomAndPan="magnify"><defs/><g><!--cluster Restaurant--><g id="cluster_Restaurant"><rect fill="none" height="213" rx="2.5" ry="2.5" style="stroke:#181818;stroke-width:1.0;" width="168.14" x="125.02" y="7"/><text fill="#000000" font-family="sans-serif" font-size="14" font-weight="bold" lengthAdjust="spacing" textLength="87.7256" x="165.2272" y="21.9951">Restaurant</text></g><g id="elem_UC1"><ellipse cx="209.0912" cy="189.0022" fill="#F1F1F1" rx="55.9112" ry="14.7422" style="stroke:#181818;stroke-width:0.5;"/><text fill="#000000" font-family="sans-serif" font-size="14" lengthAdjust="spacing" textLength="61.4346" x="175.3739" y="192.7498">Eat Food</text></g><g id="elem_UC2"><ellipse cx="209.0899" cy="123.004" fill="#F1F1F1" rx="68.0699" ry="16.014" style="stroke:#181818;stroke-width:0.5;"/><text fill="#000000" font-family="sans-serif" font-size="14" lengthAdjust="spacing" textLength="87.5273" x="162.3262" y="126.7515">Pay for Food</text></g><g id="elem_UC3"><ellipse cx="209.0894" cy="57.0013" fill="#F1F1F1" rx="38.0194" ry="14.5513" style="stroke:#181818;stroke-width:0.5;"/><text fill="#000000" font-family="sans-serif" font-size="14" lengthAdjust="spacing" textLength="37.4063" x="188.6733" y="60.413">Drink</text></g><!--entity fc--><g id="elem_fc"><ellipse cx="43.5088" cy="93.35" fill="#F1F1F1" rx="8" ry="8" style="stroke:#181818;stroke-width:0.5;"/><path d="M43.5088,101.35 L43.5088,128.35 M30.5088,109.35 L56.5088,109.35 M43.5088,128.35 L30.5088,143.35 M43.5088,128.35 L56.5088,143.35 " fill="none" style="stroke:#181818;stroke-width:0.5;"/><text fill="#000000" font-family="sans-serif" font-size="14" lengthAdjust="spacing" textLength="75.0176" x="6" y="157.8451">Food Critic</text></g><!--link fc to UC1--><g id="link_fc_UC1"><path d="M81.45,141.2 C92.76,146.53 105.31,152.21 117.02,157 C135.17,164.42 150.0683,169.8116 167.0683,175.5816 " fill="none" id="fc-to-UC1" style="stroke:#181818;stroke-width:1.0;"/><polygon fill="#181818" points="172.75,177.51,165.5131,170.8296,168.0153,175.903,162.9419,178.4051,172.75,177.51" style="stroke:#181818;stroke-width:1.0;"/></g><!--link fc to UC2--><g id="link_fc_UC2"><path d="M81.22,123 C98.74,123 114.27,123 134.59,123 " fill="none" id="fc-to-UC2" style="stroke:#181818;stroke-width:1.0;"/><polygon fill="#181818" points="140.59,123,131.59,119,135.59,123,131.59,127,140.59,123" style="stroke:#181818;stroke-width:1.0;"/></g><!--link fc to UC3--><g id="link_fc_UC3"><path d="M81.45,104.8 C92.76,99.47 105.31,93.79 117.02,89 C137.49,80.63 155.3788,74.2802 173.4088,68.2602 " fill="none" id="fc-to-UC3" style="stroke:#181818;stroke-width:1.0;"/><polygon fill="#181818" points="179.1,66.36,169.2965,65.4162,174.3574,67.9435,171.8301,73.0044,179.1,66.36" style="stroke:#181818;stroke-width:1.0;"/></g><!--SRC=[JOmn2i9044NxFSKdVGgJtYPgBO8762QpSJ3imkoa4F7kcY2wtOVttvibEZp3TBevHZLXrvm2iMT3Syfvn63goWse879O7vIcMN2HuhGO9SSp04iHfY9eZkHOnSsu3hkQdUc1-2bNlAlvmJJTlw0Fhn0PRRlVAh_P_MV_1W00]--></g></svg>