<svg xmlns="http://www.w3.org/2000/svg" xmlns:xlink="http://www.w3.org/1999/xlink" contentStyleType="text/css" height="784px" preserveAspectRatio="none" style="width:704px;height:784px;background:#1B1B1B;" version="1.1" viewBox="0 0 704 784" width="704px" zoomAndPan="magnify"><defs/><g><rect fill="#1B1B1B" height="784" style="stroke:none;stroke-width:1.0;" width="704" x="0" y="0"/><!--cluster MisterEd--><g id="cluster_MisterEd"><rect fill="none" height="761" rx="2.5" ry="2.5" style="stroke:#E7E7E7;stroke-width:1.0;" width="282.29" x="164.38" y="7"/><text fill="#FFFFFF" font-family="sans-serif" font-size="14" font-weight="bold" lengthAdjust="spacing" textLength="69.7402" x="270.6549" y="21.9951">MisterEd</text></g><g id="elem_UC1"><ellipse cx="305.5249" cy="645.999" fill="#313139" rx="84.5449" ry="19.309" style="stroke:#E7E7E7;stroke-width:0.5;"/><text fill="#FFFFFF" font-family="sans-serif" font-size="14" lengthAdjust="spacing" textLength="129.2744" x="240.8047" y="648.8744">Contact Reception</text></g><g id="elem_UC2"><ellipse cx="305.5204" cy="146.9981" fill="#313139" rx="107.8404" ry="23.9681" style="stroke:#E7E7E7;stroke-width:0.5;"/><text fill="#FFFFFF" font-family="sans-serif" font-size="14" lengthAdjust="spacing" textLength="181.2002" x="214.9203" y="149.8448">Register for Virtual Triage</text></g><g id="elem_UC3"><ellipse cx="305.5175" cy="569.9975" fill="#313139" rx="97.7375" ry="21.9475" style="stroke:#E7E7E7;stroke-width:0.5;"/><text fill="#FFFFFF" font-family="sans-serif" font-size="14" lengthAdjust="spacing" textLength="159.0586" x="225.9882" y="572.8442">Undergo Virtual Triage</text></g><g id="elem_UC4"><ellipse cx="305.519" cy="226.9978" fill="#313139" rx="94.789" ry="21.3578" style="stroke:#E7E7E7;stroke-width:0.5;"/><text fill="#FFFFFF" font-family="sans-serif" font-size="14" lengthAdjust="spacing" textLength="152.5029" x="229.2676" y="229.8445">Receive Triage Result</text></g><g id="elem_UC5"><ellipse cx="305.5205" cy="300.0041" fill="#313139" rx="71.2205" ry="16.6441" style="stroke:#E7E7E7;stroke-width:0.5;"/><text fill="#FFFFFF" font-family="sans-serif" font-size="14" lengthAdjust="spacing" textLength="96.1133" x="254.4638" y="303.7517">Wait at Home</text></g><g id="elem_UC6"><ellipse cx="305.5162" cy="379.0032" fill="#313139" rx="124.7162" ry="27.3432" style="stroke:#E7E7E7;stroke-width:0.5;"/><text fill="#FFFFFF" font-family="sans-serif" font-size="14" lengthAdjust="spacing" textLength="217.3896" x="196.8214" y="381.8499">Receive Notification to Visit ED</text></g><g id="elem_UC7"><ellipse cx="305.5156" cy="725.9991" fill="#313139" rx="117.9456" ry="25.9891" style="stroke:#E7E7E7;stroke-width:0.5;"/><text fill="#FFFFFF" font-family="sans-serif" font-size="14" lengthAdjust="spacing" textLength="202.9658" x="204.0327" y="728.8458">Visit Emergency Department</text></g><g id="elem_UC8"><ellipse cx="305.524" cy="65.0008" fill="#313139" rx="102.054" ry="22.8108" style="stroke:#E7E7E7;stroke-width:0.5;"/><text fill="#FFFFFF" font-family="sans-serif" font-size="14" lengthAdjust="spacing" textLength="168.5742" x="221.2369" y="67.8475">Visit Primary Care Clinic</text></g><g id="elem_UC9"><ellipse cx="305.5246" cy="468.9989" fill="#313139" rx="125.1446" ry="27.4289" style="stroke:#E7E7E7;stroke-width:0.5;"/><text fill="#FFFFFF" font-family="sans-serif" font-size="14" lengthAdjust="spacing" textLength="218.2988" x="196.3752" y="471.8456">Contact Nurse/Clinician Hotline</text></g><!--entity patient--><g id="elem_patient"><ellipse cx="30.688" cy="349.35" fill="#313139" rx="8" ry="8" style="stroke:#E7E7E7;stroke-width:0.5;"/><path d="M30.688,357.35 L30.688,384.35 M17.688,365.35 L43.688,365.35 M30.688,384.35 L17.688,399.35 M30.688,384.35 L43.688,399.35 " fill="none" style="stroke:#E7E7E7;stroke-width:0.5;"/><text fill="#FFFFFF" font-family="sans-serif" font-size="14" lengthAdjust="spacing" textLength="49.376" x="6" y="413.8451">Patient</text></g><!--entity GP--><g id="elem_GP"><ellipse cx="595.3547" cy="35.35" fill="#313139" rx="8" ry="8" style="stroke:#E7E7E7;stroke-width:0.5;"/><path d="M595.3547,43.35 L595.3547,70.35 M582.3547,51.35 L608.3547,51.35 M595.3547,70.35 L582.3547,85.35 M595.3547,70.35 L608.3547,85.35 " fill="none" style="stroke:#E7E7E7;stroke-width:0.5;"/><text fill="#FFFFFF" font-family="sans-serif" font-size="14" lengthAdjust="spacing" textLength="168.6494" x="511.03" y="99.8451">Primary Care Clinic (GP)</text></g><!--entity hotline--><g id="elem_hotline"><ellipse cx="595.3499" cy="439.35" fill="#313139" rx="8" ry="8" style="stroke:#E7E7E7;stroke-width:0.5;"/><path d="M595.3499,447.35 L595.3499,474.35 M582.3499,455.35 L608.3499,455.35 M595.3499,474.35 L582.3499,489.35 M595.3499,474.35 L608.3499,489.35 " fill="none" style="stroke:#E7E7E7;stroke-width:0.5;"/><text fill="#FFFFFF" font-family="sans-serif" font-size="14" lengthAdjust="spacing" textLength="159.3799" x="515.66" y="503.8451">Nurse/Clinician Hotline</text></g><!--entity ED--><g id="elem_ED"><ellipse cx="595.358" cy="711.35" fill="#313139" rx="8" ry="8" style="stroke:#E7E7E7;stroke-width:0.5;"/><path d="M595.358,719.35 L595.358,746.35 M582.358,727.35 L608.358,727.35 M595.358,746.35 L582.358,761.35 M595.358,746.35 L608.358,761.35 " fill="none" style="stroke:#E7E7E7;stroke-width:0.5;"/><text fill="#FFFFFF" font-family="sans-serif" font-size="14" lengthAdjust="spacing" textLength="203.376" x="493.67" y="775.8451">Emergency Department (ED)</text></g><!--entity receptionist--><g id="elem_receptionist"><ellipse cx="595.3542" cy="600.35" fill="#313139" rx="8" ry="8" style="stroke:#E7E7E7;stroke-width:0.5;"/><path d="M595.3542,608.35 L595.3542,635.35 M582.3542,616.35 L608.3542,616.35 M595.3542,635.35 L582.3542,650.35 M595.3542,635.35 L608.3542,650.35 " fill="none" style="stroke:#E7E7E7;stroke-width:0.5;"/><text fill="#FFFFFF" font-family="sans-serif" font-size="14" lengthAdjust="spacing" textLength="87.0283" x="551.84" y="664.8451">Receptionist</text></g><!--link patient to UC1--><g id="link_patient_UC1"><path d="M40.39,417.27 C54.67,470.31 88.52,564.63 156.38,609 C178.01,623.15 198.7884,630.5985 223.4884,635.9985 " fill="none" id="patient-to-UC1" style="stroke:#E7E7E7;stroke-width:1.0;"/><polygon fill="#E7E7E7" points="229.35,637.28,221.412,631.4501,224.4654,636.2121,219.7034,639.2655,229.35,637.28" style="stroke:#E7E7E7;stroke-width:1.0;"/></g><!--link patient to UC2--><g id="link_patient_UC2"><path d="M38.23,340.51 C45.31,308.36 59.28,262.8 85.38,231 C117.17,192.26 163.1774,172.7983 208.4474,161.5383 " fill="none" id="patient-to-UC2" style="stroke:#E7E7E7;stroke-width:1.0;"/><polygon fill="#E7E7E7" points="214.27,160.09,204.5706,158.3807,209.4178,161.2969,206.5016,166.1441,214.27,160.09" style="stroke:#E7E7E7;stroke-width:1.0;"/></g><!--link patient to UC3--><g id="link_patient_UC3"><path d="M55.67,412.84 C78.55,442.98 115.51,486.44 156.38,514 C181.91,531.22 207.7613,542.2126 235.1713,551.2426 " fill="none" id="patient-to-UC3" style="stroke:#E7E7E7;stroke-width:1.0;"/><polygon fill="#E7E7E7" points="240.87,553.12,233.5735,546.5048,236.1211,551.5555,231.0703,554.1031,240.87,553.12" style="stroke:#E7E7E7;stroke-width:1.0;"/></g><!--link patient to UC4--><g id="link_patient_UC4"><path d="M41.47,340.42 C49.44,316.86 63.1,288.07 85.38,271 C120.72,243.92 162.4459,232.9252 204.3159,228.3252 " fill="none" id="patient-to-UC4" style="stroke:#E7E7E7;stroke-width:1.0;"/><polygon fill="#E7E7E7" points="210.28,227.67,200.897,224.6768,205.3099,228.216,201.7707,232.6289,210.28,227.67" style="stroke:#E7E7E7;stroke-width:1.0;"/></g><!--link patient to UC5--><g id="link_patient_UC5"><path d="M55.85,366.09 C64.94,361.56 75.48,356.68 85.38,353 C138.94,333.07 196.79,319.7739 241.69,311.0539 " fill="none" id="patient-to-UC5" style="stroke:#E7E7E7;stroke-width:1.0;"/><polygon fill="#E7E7E7" points="247.58,309.91,237.9825,307.6992,242.6717,310.8632,239.5077,315.5525,247.58,309.91" style="stroke:#E7E7E7;stroke-width:1.0;"/></g><!--link patient to UC6--><g id="link_patient_UC6"><path d="M55.42,379 C83.69,379 127.04,379 174.4,379 " fill="none" id="patient-to-UC6" style="stroke:#E7E7E7;stroke-width:1.0;"/><polygon fill="#E7E7E7" points="180.4,379,171.4,375,175.4,379,171.4,383,180.4,379" style="stroke:#E7E7E7;stroke-width:1.0;"/></g><!--link patient to UC7--><g id="link_patient_UC7"><path d="M34.42,417.43 C39.15,464.97 51.85,547.19 85.38,609 C107.11,649.06 117.38,659.4 156.38,683 C174.59,694.02 190.0386,700.6075 210.5986,706.8475 " fill="none" id="patient-to-UC7" style="stroke:#E7E7E7;stroke-width:1.0;"/><polygon fill="#E7E7E7" points="216.34,708.59,208.8896,702.1486,211.5555,707.1379,206.5662,709.8038,216.34,708.59" style="stroke:#E7E7E7;stroke-width:1.0;"/></g><!--link UC3 to UC8--><g id="link_UC3_UC8"><path d="M227.01,556.73 C201.01,548.55 174.19,535.34 156.38,514 C93.4,438.58 125.64,394.36 116.82,296.5 C109.86,219.38 137.99,125.22 156.38,106 C171.23,90.48 185.6107,82.3662 206.2807,76.1962 " fill="none" id="UC3-to-UC8" style="stroke:#E7E7E7;stroke-width:1.0;stroke-dasharray:7.0,7.0;"/><polygon fill="#E7E7E7" points="212.03,74.48,202.2619,73.2214,207.2389,75.9101,204.5501,80.8871,212.03,74.48" style="stroke:#E7E7E7;stroke-width:1.0;"/><text fill="#FFFFFF" font-family="sans-serif" font-size="13" lengthAdjust="spacing" textLength="61.1851" x="86.38" y="292.5669">&#171;extend&#187;</text></g><!--link UC3 to UC9--><g id="link_UC3_UC9"><path d="M305.52,547.58 C305.52,532.59 305.52,518.75 305.52,502.76 " fill="none" id="UC3-to-UC9" style="stroke:#E7E7E7;stroke-width:1.0;stroke-dasharray:7.0,7.0;"/><polygon fill="#E7E7E7" points="305.52,496.76,301.52,505.76,305.52,501.76,309.52,505.76,305.52,496.76" style="stroke:#E7E7E7;stroke-width:1.0;"/><text fill="#FFFFFF" font-family="sans-serif" font-size="13" lengthAdjust="spacing" textLength="61.1851" x="263.52" y="526.8069">&#171;extend&#187;</text></g><!--link UC7 to ED--><g id="link_UC7_ED"><path d="M420.69,731.95 C444.71,733.2 463.8882,734.1963 487.3782,735.4263 " fill="none" id="UC7-to-ED" style="stroke:#E7E7E7;stroke-width:1.0;"/><polygon fill="#E7E7E7" points="493.37,735.74,484.5915,731.2749,488.3768,735.4785,484.1731,739.2639,493.37,735.74" style="stroke:#E7E7E7;stroke-width:1.0;"/></g><!--link UC8 to GP--><g id="link_UC8_GP"><path d="M408,65 C441.67,65 472.73,65 504.88,65 " fill="none" id="UC8-to-GP" style="stroke:#E7E7E7;stroke-width:1.0;"/><polygon fill="#E7E7E7" points="510.88,65,501.88,61,505.88,65,501.88,69,510.88,65" style="stroke:#E7E7E7;stroke-width:1.0;"/></g><!--link UC9 to hotline--><g id="link_UC9_hotline"><path d="M431.09,469 C459.66,469 483.26,469 509.28,469 " fill="none" id="UC9-to-hotline" style="stroke:#E7E7E7;stroke-width:1.0;"/><polygon fill="#E7E7E7" points="515.28,469,506.28,465,510.28,469,506.28,473,515.28,469" style="stroke:#E7E7E7;stroke-width:1.0;"/></g><!--link UC1 to receptionist--><g id="link_UC1_receptionist"><path d="M388.23,641.46 C441.42,638.5 502.6492,635.0921 545.5792,632.7121 " fill="none" id="UC1-to-receptionist" style="stroke:#E7E7E7;stroke-width:1.0;"/><polygon fill="#E7E7E7" points="551.57,632.38,542.3624,628.8843,546.5777,632.6568,542.8052,636.8721,551.57,632.38" style="stroke:#E7E7E7;stroke-width:1.0;"/></g><!--SRC=[VPBDRi8m48JlVeeL9tgWLVcdGboIY5wA42hqR3bBM2bna6EgeghltetZK195pMd7_cQojZV5emMRWw7aP24cWyfIheLKDZVGsqfBg6qFP07dghvj6SgakK8W3KAGaYO5_VNsmR7hROrjBgR0fsgVf8RNt7ADZZfLTOr66Pe4jRf2Y6TfRCP_WtuKLf5HM7CxL7WkkwIYwipSBGXH7a7g94LuOuqcYk5R07-N0fKi47f1hYrdmIt8fUo3voQsmyG5m97_UY1ZBpA5TqCoGMyODWrx7VC9ycvsr0vNI9_e6MwbkAJMe-Cc-Y79WhHyTLaTDkaEs-IMZgHaUQRoLGzKi3KAlMlQTFdTZblt_AoBxtXtZy-xR_c_2TW72_4ZX1yj60nMxXcQUjZIevOUj_IafQSjFHES0OzbEN-1vHA_BEfujVfRNhIMPyx94yWEL_9yC-NAUeYvRwVlX_4N]--></g></svg>